# xmcd CD database file
#
# Track frame offsets:
#	187
#	28620
#	49357
#	79610
#	102360
#	128852
#	154462
#	180042
#
# Disc length: 2606 seconds
#
# Revision: 0
# Processed by: cddbd v1.5PL3 Copyright (c) Steve Scherf et al.
# Submitted via: CDex 1.50
#
DISCID=5e0a2c08
DTITLE=Red Garland - At the Prelude
DYEAR=1959
DGENRE=Jazz
TTITLE0=Satin Doll
TTITLE1=Perdido
TTITLE2=There'll Never Be Another You
TTITLE3=Bye Bye Blackbird
TTITLE4=Let Me See
TTITLE5=Prelude Blues
TTITLE6=Just Squeeze Me
TTITLE7=One O'clock Jump
EXTD=YEAR: 1959
EXTT0=
EXTT1=
EXTT2=
EXTT3=
EXTT4=
EXTT5=
EXTT6=
EXTT7=
PLAYORDER=
